PathFileType	4	(X/Y/Z)	/Users/itak/Documents/Research/Walk-IL/dataset/trc/00165_00008.trc
DataRate	CameraRate	NumFrames	NumMarkers	Units	OrigDataRate	OrigDataStartFrame	OrigNumFrames
100.000000	100.000000	4	53	mm	100.000000	64	515
Frame#	Time	RPSI			LPSI			L3			STRN			T10			C7			CLAV			RBAK			LBAK			LSHO			LUPA			LAEL			LAOL			LWTS			LWPS			LFRA			LIFD			LHPS			LHTS			RSHO			RUPA			RAEL			RAOL			RWTS			RWPS			RFRA			RIFD			RHTS			RHPS			RBHD			LFHD			RFHD			LBHD			LHIP			RHIP			RASI			LASI			LKNE			LTHI			LANK			LTIP			LTOE			LMT1			LMT5			LHEE			RKNE			RTHI			RANK			RTIP			RTOE			RMT1			RMT5			RHEE			
		X1	Y1	Z1	X2	Y2	Z2	X3	Y3	Z3	X4	Y4	Z4	X5	Y5	Z5	X6	Y6	Z6	X7	Y7	Z7	X8	Y8	Z8	X9	Y9	Z9	X10	Y10	Z10	X11	Y11	Z11	X12	Y12	Z12	X13	Y13	Z13	X14	Y14	Z14	X15	Y15	Z15	X16	Y16	Z16	X17	Y17	Z17	X18	Y18	Z18	X19	Y19	Z19	X20	Y20	Z20	X21	Y21	Z21	X22	Y22	Z22	X23	Y23	Z23	X24	Y24	Z24	X25	Y25	Z25	X26	Y26	Z26	X27	Y27	Z27	X28	Y28	Z28	X29	Y29	Z29	X30	Y30	Z30	X31	Y31	Z31	X32	Y32	Z32	X33	Y33	Z33	X34	Y34	Z34	X35	Y35	Z35	X36	Y36	Z36	X37	Y37	Z37	X38	Y38	Z38	X39	Y39	Z39	X40	Y40	Z40	X41	Y41	Z41	X42	Y42	Z42	X43	Y43	Z43	X44	Y44	Z44	X45	Y45	Z45	X46	Y46	Z46	X47	Y47	Z47	X48	Y48	Z48	X49	Y49	Z49	X50	Y50	Z50	X51	Y51	Z51	X52	Y52	Z52	X53	Y53	Z53	

65	0.64	-1977.60595703125	1051.908569335938	13.05240440368652	-1965.197509765625	1049.689575195312	-109.7055587768555	-1970.533569335938	1089.598022460938	-46.92311477661133	-1705.273803710938	1294.709838867188	-37.73963928222656	-2000.015502929688	1247.663818359375	-57.5100212097168	-1931.069458007812	1516.197143554688	-66.45784759521484	-1732.271850585938	1408.93408203125	-50.00022506713867	-2006.222045898438	1342.951293945312	38.70779800415039	-1931.37646484375	1489.149047851562	-168.3764801025391	-1849.331909179688	1473.255249023438	-241.4263458251953	-1872.265625	1340.058959960938	-316.0492248535156	-1843.890991210938	1120.103149414062	-330.0115051269531	-1906.4306640625	1106.45703125	-269.693115234375	-1743.022338867188	889.5006713867188	-267.0965270996094	-1811.518798828125	867.87158203125	-328.0223693847656	-1825.614868164062	1009.801574707031	-338.4093322753906	-1728.780395507812	706.6043701171875	-236.7485504150391	-1791.05908203125	798.3381958007812	-317.3656616210938	-1727.250122070312	811.2587890625	-283.4361267089844	-1879.15185546875	1495.916137695312	117.8022613525391	-1902.2041015625	1429.247314453125	187.0340576171875	-1910.339111328125	1139.303100585938	243.0575103759766	-1919.022583007812	1132.835327148438	145.0274353027344	-1763.59423828125	915.7990112304688	210.8642120361328	-1834.212280273438	897.257080078125	264.1763916015625	-1881.358154296875	1067.183837890625	259.1934509277344	-1744.73291015625	728.657470703125	186.8871459960938	-1736.193603515625	822.0421142578125	217.2139129638672	-1801.952514648438	814.4542236328125	258.47021484375	-1891.662475585938	1674.1806640625	5.524856090545654	-1721.03369140625	1730.960815429688	-117.8933639526367	-1726.173461914062	1732.9130859375	11.31965160369873	-1891.932739257812	1678.972290039062	-132.5385131835938	-1853.130004882812	985.2368774414062	-219.6925048828125	-1829.689208984375	1014.273010253906	147.8828582763672	-1744.14306640625	1041.487426757812	98.03372192382812	-1733.834594726562	1023.551513671875	-159.4139404296875	-1860.1669921875	493.8258972167969	-189.4791412353516	-1842.375732421875	635.6166381835938	-214.0809173583984	-1972.978271484375	42.46210098266602	-205.9563293457031	-1915.520629882812	276.4007263183594	-210.849365234375	-1752.931762695312	39.02892684936523	-199.4686279296875	-1799.36474609375	39.71730804443359	-147.2216644287109	-1870.056030273438	31.2995433807373	-255.5628356933594	-2017.4833984375	41.60643005371094	-131.2397766113281	-1814.906127929688	515.2073364257812	140.9471893310547	-1778.485595703125	784.3582153320312	166.8754272460938	-1933.21435546875	38.17986679077148	155.8935546875	-1810.400390625	392.1589660644531	127.8624420166016	-1707.899291992188	38.72676467895508	130.1555480957031	-1763.408081054688	37.35670852661133	83.03373718261719	-1821.413452148438	34.78562545776367	195.4030609130859	-1981.382690429688	36.48525619506836	86.45033264160156	
66	0.65	-1977.330932617188	1051.984619140625	13.57825469970703	-1964.947143554688	1049.83154296875	-109.2375030517578	-1970.201538085938	1089.667236328125	-46.36914825439453	-1704.877075195312	1294.624145507812	-37.32253265380859	-1999.667236328125	1247.799194335938	-56.86270523071289	-1930.531494140625	1516.298095703125	-65.73509216308594	-1731.812744140625	1408.896118164062	-49.50964736938477	-2005.725708007812	1343.074096679688	39.41596984863281	-1930.946899414062	1489.287353515625	-167.6748962402344	-1848.976196289062	1473.37646484375	-240.8256225585938	-1872.0712890625	1340.184326171875	-315.4132080078125	-1843.768676757812	1120.206420898438	-329.3905029296875	-1906.199462890625	1106.566528320312	-268.9643859863281	-1742.782592773438	889.620849609375	-266.6404418945312	-1811.336791992188	867.9561157226562	-327.3848571777344	-1825.507934570312	1009.902099609375	-337.8059997558594	-1728.665283203125	706.7100830078125	-236.2935943603516	-1790.975708007812	798.4515991210938	-316.823486328125	-1726.808959960938	811.3709716796875	-283.4501037597656	-1878.452514648438	1495.889770507812	118.4486541748047	-1901.467895507812	1429.207763671875	187.6918487548828	-1909.816772460938	1139.2978515625	243.7135009765625	-1918.61767578125	1132.842041015625	145.6996612548828	-1763.388549804688	915.6539916992188	211.2777404785156	-1833.878173828125	897.187255859375	264.7021484375	-1880.848754882812	1067.13818359375	259.8043518066406	-1744.687622070312	728.5147705078125	187.2711944580078	-1735.9677734375	821.9985961914062	217.6580657958984	-1801.804443359375	814.29052734375	258.9126586914062	-1890.876098632812	1674.184936523438	6.38727331161499	-1720.300659179688	1730.922119140625	-117.1077346801758	-1725.288940429688	1732.698120117188	12.10022163391113	-1891.260009765625	1679.190673828125	-131.6973114013672	-1853.071655273438	985.2874755859375	-219.2970581054688	-1829.838134765625	1014.389770507812	148.2467956542969	-1743.92431640625	1041.511596679688	98.39351654052734	-1733.751342773438	1023.502380371094	-159.0133666992188	-1860.137817382812	493.8642578125	-189.2988586425781	-1842.292114257812	635.6289672851562	-213.7786865234375	-1972.961791992188	42.47269058227539	-205.9320220947266	-1915.483032226562	276.4122619628906	-210.7400360107422	-1752.917602539062	39.02334976196289	-199.4680786132812	-1799.346557617188	39.70887756347656	-147.2144927978516	-1870.056396484375	31.30460357666016	-255.5601959228516	-2017.479858398438	41.6224479675293	-131.2280578613281	-1814.962646484375	515.1600341796875	141.1072998046875	-1778.730346679688	784.1728515625	167.1053466796875	-1933.215209960938	38.17961502075195	155.8924407958984	-1810.496948242188	392.1618957519531	127.9817733764648	-1707.899047851562	38.72048568725586	130.1471557617188	-1763.431030273438	37.33630752563477	83.02412414550781	-1821.413696289062	34.78171539306641	195.4021759033203	-1981.388427734375	36.49359130859375	86.46257019042969	
67	0.66	-1977.055786132812	1052.049194335938	14.12076187133789	-1964.711669921875	1049.974975585938	-108.7560501098633	-1969.867065429688	1089.74755859375	-45.80532836914062	-1704.506103515625	1294.533203125	-36.89823532104492	-1999.307861328125	1247.932861328125	-56.20061492919922	-1929.982666015625	1516.398193359375	-64.99793243408203	-1731.340576171875	1408.863403320312	-49.00430679321289	-2005.22021484375	1343.196044921875	40.15366744995117	-1930.511962890625	1489.421997070312	-166.9586486816406	-1848.630981445312	1473.502563476562	-240.2049255371094	-1871.877807617188	1340.3037109375	-314.7574157714844	-1843.652709960938	1120.309326171875	-328.7577819824219	-1905.9794921875	1106.675048828125	-268.2254943847656	-1742.513671875	889.7905883789062	-266.1604309082031	-1811.131103515625	868.0430908203125	-326.7095947265625	-1825.393798828125	1009.99755859375	-337.181396484375	-1728.5087890625	706.8564453125	-235.8054351806641	-1790.832763671875	798.5740966796875	-316.2224731445312	-1726.321655273438	811.5136108398438	-283.4228210449219	-1877.727661132812	1495.856811523438	119.1087417602539	-1900.7138671875	1429.163452148438	188.3759765625	-1909.240600585938	1139.28857421875	244.3748931884766	-1918.166137695312	1132.842895507812	146.3941650390625	-1763.153442382812	915.4761962890625	211.7183380126953	-1833.530639648438	897.1002197265625	265.2476196289062	-1880.30224609375	1067.095581054688	260.4223022460938	-1744.722290039062	728.3198852539062	187.67529296875	-1735.733642578125	821.9207153320312	218.1348876953125	-1801.70458984375	814.1170654296875	259.4046630859375	-1890.055541992188	1674.180786132812	7.2737717628479	-1719.551025390625	1730.876586914062	-116.2988662719727	-1724.373779296875	1732.471801757812	12.90152549743652	-1890.57568359375	1679.416137695312	-130.8211517333984	-1852.989135742188	985.3368530273438	-218.8907928466797	-1829.96875	1014.490173339844	148.6150817871094	-1743.724243164062	1041.544677734375	98.76139831542969	-1733.652954101562	1023.456176757812	-158.60107421875	-1860.113037109375	493.9034118652344	-189.1044006347656	-1842.194091796875	635.6378784179688	-213.4537506103516	-1972.944946289062	42.48642349243164	-205.9051055908203	-1915.4462890625	276.4240417480469	-210.6238098144531	-1752.90283203125	39.01723861694336	-199.4663848876953	-1799.326049804688	39.69922637939453	-147.2063446044922	-1870.057373046875	31.31139755249023	-255.5561676025391	-2017.481567382812	41.63895034790039	-131.2100219726562	-1814.998413085938	515.1040649414062	141.2807159423828	-1778.759521484375	783.9791870117188	167.4178009033203	-1933.215576171875	38.18062591552734	155.8907012939453	-1810.58056640625	392.1612548828125	128.1161193847656	-1707.895751953125	38.71186447143555	130.1390991210938	-1763.453491210938	37.31361770629883	83.01317596435547	-1821.413452148438	34.77642822265625	195.4016571044922	-1981.392700195312	36.49910354614258	86.47203063964844	
68	0.67	-1976.7822265625	1052.107299804688	14.67345333099365	-1964.501953125	1050.116821289062	-108.2523880004883	-1969.541381835938	1089.837280273438	-45.23771286010742	-1704.163940429688	1294.43798828125	-36.46279144287109	-1998.947998046875	1248.070556640625	-55.5247917175293	-1929.422729492188	1516.49755859375	-64.24929809570312	-1730.862548828125	1408.829956054688	-48.48535537719727	-2004.704956054688	1343.316162109375	40.91408538818359	-1930.06982421875	1489.552368164062	-166.2252044677734	-1848.291870117188	1473.632690429688	-239.5641326904297	-1871.68310546875	1340.419921875	-314.086669921875	-1843.537109375	1120.412231445312	-328.1161499023438	-1905.774536132812	1106.78515625	-267.487060546875	-1742.215087890625	890.0111083984375	-265.6416931152344	-1810.90966796875	868.1358642578125	-326.0046081542969	-1825.265502929688	1010.089172363281	-336.5376892089844	-1728.300659179688	707.0399780273438	-235.2676849365234	-1790.622802734375	798.7026977539062	-315.5599060058594	-1725.809692382812	811.6839599609375	-283.2970886230469	-1876.981201171875	1495.8193359375	119.781867980957	-1899.94873046875	1429.113891601562	189.0823974609375	-1908.616943359375	1139.27490234375	245.0378723144531	-1917.672729492188	1132.837768554688	147.1013031005859	-1762.8896484375	915.265380859375	212.1867980957031	-1833.172485351562	896.9968872070312	265.8162231445312	-1879.72607421875	1067.0556640625	261.0458679199219	-1744.830200195312	728.0750122070312	188.1034393310547	-1735.479736328125	821.8050537109375	218.6480255126953	-1801.635620117188	813.9439697265625	259.9540100097656	-1889.202392578125	1674.167236328125	8.183741569519043	-1718.783447265625	1730.823486328125	-115.4697265625	-1723.430541992188	1732.234008789062	13.72133350372314	-1889.880004882812	1679.645141601562	-129.9087982177734	-1852.881713867188	985.3834838867188	-218.4685974121094	-1829.973510742188	1014.53173828125	148.9960784912109	-1743.503784179688	1041.55810546875	99.14115905761719	-1733.54150390625	1023.41748046875	-158.1856384277344	-1860.092529296875	493.9414367675781	-188.8950958251953	-1842.091674804688	635.643310546875	-213.113525390625	-1972.926391601562	42.50379943847656	-205.8758697509766	-1915.411865234375	276.4364318847656	-210.5003967285156	-1752.886596679688	39.0103759765625	-199.4633026123047	-1799.30517578125	39.68881607055664	-147.1984558105469	-1870.058349609375	31.31974983215332	-255.5501403808594	-2017.48974609375	41.65742111206055	-131.1865386962891	-1815.001220703125	515.0381469726562	141.4703674316406	-1778.598754882812	783.7806396484375	167.8094024658203	-1933.214599609375	38.1822509765625	155.8889007568359	-1810.640625	392.1551818847656	128.2625122070312	-1707.889526367188	38.70083236694336	130.1318817138672	-1763.474243164062	37.28885269165039	83.00022125244141	-1821.412719726562	34.76944351196289	195.4014587402344	-1981.395629882812	36.50219345092773	86.47846221923828	
